<mxfile host="65bd71144e">
    <diagram id="fdjuxbfaI46C5z8TmV_6" name="第 1 页">
        <mxGraphModel dx="1066" dy="619" grid="1" gridSize="10" guides="1" tooltips="1" connect="1" arrows="1" fold="1" page="1" pageScale="1" pageWidth="850" pageHeight="1100" math="0" shadow="0">
            <root>
                <mxCell id="0"/>
                <mxCell id="1" parent="0"/>
                <mxCell id="5" value="" style="edgeStyle=none;html=1;movable=0;resizable=0;rotatable=0;deletable=0;editable=0;connectable=0;" edge="1" parent="1" source="3" target="4">
                    <mxGeometry relative="1" as="geometry"/>
                </mxCell>
                <mxCell id="3" value="" style="shape=image;verticalLabelPosition=bottom;labelBackgroundColor=default;verticalAlign=top;aspect=fixed;imageAspect=0;image=data:image/png,iVBORw0KGgoAAAANSUhEUgAAAJsAAADVCAYAAABAM4KQAAANtklEQVR4nO3dPWwaaR4G8GdPJ1leT8zKsgWjZCMixcEIRbIlLIpryBUUFt11KV27uXpq6mtcp0y3HXLh4pZmC2QkR4os4mQlIyURoLOs4B1v5GqvgIFhmE9m/GeA59ckhpnhtefh/WJe5oenT5/+BSIBf5t1AWh5MGwkhmEjMQwbiWHYSAzDRmIYNhLDsJGYQGFTSjmUj5JQHJ4rllYiKhYtogBhW8fOvoLOb13oxkNqEkUtjZRlu7yWw7YaWRlpQfgP294GUujiy7npsXYXjbM15LUCdjbvoG+qKGtZpK4+41M7+sLSfPvB32ejK9g+2sXjj+9QO7233SL1uoD8Rgu1Y1PNR2Tir2ZTf8LjhI6v7yeDppRyKGsFPEEXnZtVFLUC+25ky1fYUq/SUHrXaFubRjWJ/P4dGpU6PlyvQbluo1ppQt9/zj4bTfi79ybrePIM6JzYNI/tLmqV/n9HI9RbNCoXkRWQFodn2JTSz0ihi8a5+3b66QVqUZWKFpJHM7oC9YUC/ayNjkx5aIG5h81lYEAUlGvYUq/SUDhnRhFxCdtgYNC8lSsNLTTHsBkDgy8eAwMivxzCxoEBRc/nx1VE4fF6NhLDsJEYho3EMGwkhmEjMb7CVtYKro87PT/tcaX2J1mR1GzVSp0nnjz5uJ7Nn2qlHtWhbHnVrm4eumzkTyRhM59wuxPrFgin56zHsf5c1goM0ZxxDJs1BMbP1ibT70l3CmHQcNL8cgybOQTWUBj/n1XtYn5dt2Cy5osXz2bUTy1j3UbyJAepMWm2fPfZnGqTaU+ssV/Q/b3Cz6DFl+vUh/nEmftq1Up97HHz9kEFmTbxChKDFm+BRqNRnWi7PuA0QbILqd1jDGA8uI5GvU6Stbbzw+m4XoFz2idomWl2HJvRICfNb1PKMCy3UB9XmTv5fvipKWlxTR02p8EDkZPAYStrBdvmMIrAzerqEZIROGzmaQ+758KYZt4tzH4ki6urSAyv1CUxDBuJYdhIDMNGYhg2EiMaNs6HLTfPqY8gAfEzzxXkUnDOmy0WX5cY+Q2R3+ecruwNe20cxVtkS/ncBK2hPD8N2EujfJAc/dxbxDvLrCOvZaGcOd9VB5ivO+v4ClsUtYzTxY+Bm0o1ieJBEp2TuufX5ZOXfqBT0HH55uLBvzs5smbUzzGs6ximWayivNyE0msxaCGlXheQf9bF5ZmO1L7Maz54M+rWX3MaFLgFTtlUAFxHWsZlo5RyyKOJauUWSimHjNDrRt6Meq1kj+I13BlNg8GuiejfZTCTGD3i1CwrpRyK+wp0j75TsDLZv16/thl/bKIfZu2vAkDP+jzQqLTxyPw7XjVRfdv/5nf99ALV6X6RUCJtRqMKzETtNvEHTqOopYc/DU+cmkTxMA2cvUN1EAyllEPxsIDE8OQOTvxVE9XjW9PxCyhuhQmUkxVsH23gS6WOxuARpZRD8SCH7Y7xJhiEHy3UKkZHfzBAMB2pH3zg8k19+ObpDxCsr5lEXktCN/4OahLFwyzye7Pt5wZqRv1+L0fU++K8hep5C4D76Kt/98DWWGD0099x+WIXmew6cH47uhfX29ux4zeySeRf/ATldPy4+ukFqqfeRXR2j0/HrbFH9PfX0PfTSKQAtAHsqcgkdFy+cRtR9u9krZ+989WRH6s529+hA1C2VgDM7m49gftsfpbTPcS+3lbwaAPQP36znLB7tD/qyLxYhYLbfp/v6vPEV+53ml3gYBUKbJqusOyaPtPrKFtrgN0tNs3UVSjwe2snHb2xX/AWjRhMkIvMs/k17Sr5WBsEbazPZzT3S8Y1bH4XBkclXNDu8ccNoEw0hf0biODmc/+xax3Y30AKt2O1WyqbBHqtyGs1ZWsNQBcfvPqCCUutqq6O9dcGRxs1vQCM2nxeRLYi3o+H/uK+flOYRr70bViLKKXn/f7QL4OR2KC/lH99MxydYS+NvMMNfMOORvX/3QFYwyMV6LQxrNXMwTLKtFNqozPs0I9vg/Y3fO0BmX8koZx3oZtH1L3J142jUCvizdv5XUFv3TdS5y1UO99RPNxFeThR2UWj0hrVYu0uapXvyGtZlDXjQX1shBd1mRrZAvKHhcF8lo7LN00kDrOjbdpd1E5WUT4wyt1Fo/IOj4528Xi40T0+HTeR0LLDkXjnpI7aVg7FFwHLZAqzIWOUzzRFErVIFrxE0cdaqH4a2eLqKhLDK3VJDMNGYhg2EsOwkRiGjcTYzrP9+OOP0uWgJTBVzfbPf7+Muhy0BFw/rvrzzz+nes5O1EsCaf4EvuojzJUZYZcE0nwLfPGk9atNZ1ILcSnf0MIt5QPsP7sMGrhIai0u5YtQDJfyed2fIMyd+YLiUr5oxHIpn5+vn5dsUrmUL7zYLeUzpjecvofD7dvCnUInMyLlUr65W8r33/+8Dzy9EdVNNSZCyaV8o/2WZSlfVAIv6+NSPizNUj4/d78LO+cWfqTKpXzmI8/tUj7e/S4ELuUbEmlGZZYEcilf3M2kz/ZQtSKX8sWb5yLloM9N2+RGshqeS/n8idNSPuN6tqBTH2GxL7jYYhU2Wmy8LJzEMGwkhmEjMa6jUS58oSixZiMxtjUbR6H0EFizkRiGjcQwbCSGYSMxDBuJYdhIDMNGYhg2EsOwkRiGjcQwbCSGYSMxDBuJYdhIDMNGYhg2EsOwkRiGjcQwbCSGYSMxDBuJYdhIDMNGYhg2EsOwkRiGjcQwbCSGYSMxDBuJYdhIDMNGYhg2EsOwkRiGjcQwbCSGYSMxDBuJYdhIDMNGYhg2EsOwkRiGjcQwbCSGYSMxDBuJYdhIjGfYylrB8TG754KY9f4kK1TNVq3UecLJN9fbdseJU6j9hL1aqUddHJrCD0+fPv3LbYOyVhg7WdOc3GlqP6+AWMtF8TdVzWYNn5+TbreN075smheTY9jMJzxuJ98cUreyseaLF8ewmU+mMRAw/rWeYPPP0ic4SI1Js+W7GTWfvGmaUStriIPs5+e4FD8zn9QNMn3iFSQGLd6mGiCEbUatofBTw9k97zbhbMYAxoPYaNRre6/AOe3j59gUD76aUbtBwTQYhuXma+ojqoB4HYdBXGyuUx9+J12tPzM0ZMe1zxak/xSFsNMoFG8zn/owm2beLcx+JMvzg3iiqMSqZqPFxrCRGIaNxDBsJIZhIzEMG4lh2EgMw0Ziol/KpyZRPExDP6mjce600TryWhbK2TvUTu8jL0JQqdcF5J8BQBeNSgudWRfIxTyV1Wpu1o2O2UujfJAEei3UjrvQQxxKKeWQfxanE9d/I6ag4/LNBT61x5/tvK2jikHojr6H/v0lzVkzuo68VkA5+x2XvSiOtwL1hQL9rB2LoKVeF1DWNtA7845P59cW9MQmVFWgYBGZo7CtYPsoC5zUUX37bdaFiZxSyiGPJqqVFtrem88l92bUaK6G7JqbFWwf7SKTGN/V+t4c9TXst1FKORRfXKN2/B07WhYpY5thv+4en44lr+ro/16PP75DA89R3FcGjzs0ucbf6qqJ6tvbwK+mn16gGrbIMeccNjWJYvYG1Upr8ED/jz/eTxj0L66aqB7fjvY7TJsONAgjWqhVxvdTYJFIo6gBnZM6qucYnMDn2H4/2XeRouzvonjVRLVyC6Pc+dc3UwVq2Tk3o+0uamN/0Hu0P+pAYnUYEqX0M1LoouH2h99TkUnouPzFT0dWx+Ub0yi28x06FCRSrjtNT/0JjxM6vr53GRGP1VS3+HIFYGN18o1y3kK1UpcLYfsbvvYUZF6ty7xeBFybUbumD7gb/k/ZVICrz66da2VrDehdo+2rZrrDH+bt2l3UKl0/OwYzqH2VXgu1ysXcjObG9bsV7VIOZU0xdTfiyzFs/aCND7+VUg7FfamiPSAjxGoSRa3gMScYV6O5ymol3iEzODSjK3i0AeDqs3dfydqkpGyamITlMdVmm1lof8PXHqBsrcy6JMGpq1Dg0QWIGYew3eOPG4wFqV+rjUek0+wCiTR29gYPTIxeAf39NXQksVManFCjCYvsV4iJvXR/fe3r+elDSXNsRjtvm+hoWRS1wciy10Lt5A7FA9NG5y3UttZQPCigfDDYptLEjpYdbdPuonayivLBLsr7QH/q4B0eHe3iccDCTgY+PSxfZy6bQhObN2HmsIAMMPV0Stws+YKX0Vxa3DvXE9Qkioeb+GrzkVZczdEnCA+h311Q9lU81OzKQ1FebkKxjt5jbslrNmD8E5A4fSBvbzQdZf9BfZwxbCRmyZtRksSwkRiGjcQwbCSGYSMxDBuJYdhIjI+wrWD7KIdtvwsr1CSKWoDtaWk4hk0p5SavYNhLo3yUdL1iI/UqDcXPpUm0dBzDpp/+jsuNLMqaisTNHRKvCigfJNH5ze3y7nU8eQZ0mvN/hQJFz8fHVf5Xr49WSM3PwlmS49JnW8H2UX/RLK660Dd3UXbtiw0W/H78xqCRLZc+23NkbpqoVtrobayh92sd1ZM7ZP7l0GcbrKKap8uUSZbjlbqjRbOm6/PPW/31nDZS2f4CXQ4MyImPL5a5x6fjC/dN1CR2ngGdEw4MyFkkk7rKy00ovRY+zPMaAHpwEYSNAwPyJ3zY9lRkEl18mLcFIyQudNj6A4ObWF+3T/EQLmzGwICfGJAPocLGgQEFwdVVJIbXs5EYho3EMGwkhmEjMQwbiWHYSAzDRmL+D/+dU1V3JoVWAAAAAElFTkSuQmCC;movable=0;resizable=0;rotatable=0;deletable=0;editable=0;connectable=0;" vertex="1" parent="1">
                    <mxGeometry x="140" y="321.5" width="155" height="213" as="geometry"/>
                </mxCell>
                <mxCell id="7" value="" style="edgeStyle=none;html=1;movable=0;resizable=0;rotatable=0;deletable=0;editable=0;connectable=0;" edge="1" parent="1" source="4" target="6">
                    <mxGeometry relative="1" as="geometry"/>
                </mxCell>
                <mxCell id="4" value="" style="shape=image;verticalLabelPosition=bottom;labelBackgroundColor=default;verticalAlign=top;aspect=fixed;imageAspect=0;image=data:image/png,iVBORw0KGgoAAAANSUhEUgAAAJoAAADRCAYAAAA0YKu4AAAN5klEQVR4nO3dv28aaR4G8GdPq7O8npg9ny0YZTeHpTgYoUi2hEVxDWkoLKq7zqVrN1dT8x+4TpnurkIu3CzNFshIthRZxMlKRkoiQOvzBXa8ka+5K2BgZjzA/Pwy4OfTJB5mhsHz+P018zLfPHv27H8gCtkfZn0A9DgwaCSCQSMRDBqJYNBIBINGInwHTSlkUDyKQxnzWr6w5PctaAH4DNoqtvcUtH/uQNMXqXHkS0kkLOtlSxlsqf7ejeaXv6DtriGBDj6dG5a1OqifrSBbymF7/Q7auopiKY3E9Ud8aPk7WJpf33i/MrCEraMdPH1/gerpve0aiYMcsmtNVI8NJR49St5LNPV7PI1p+Pz2YciUQgbFUg4/oIP27TLypRzbao+c56AlXiWhdG/QslaHahzZvTvUyzW8u1mBctNCpdyAtvecbbRH7Ftvm63ih02gfWJTJbY6qJb7/x31RHuoly+9vRUtBE9BUwo/IoEO6ueT19NOL1H18ga0cDxUnUtQXyjQzlpoB388tKDcB21CJ4BoHNdBS7xKQuGYGLnkMmiDTkCjF87R0MJyFTS9E/BpSieAyMpF0NgJIO98XIIico73o5EIBo1EMGgkgkEjEQwaifActGIpN3H5uNe97ldqewpHaCVapVzjSachj/ejOVMp18Lc/dRSdZKwj43MQgua8WTbndRJYRj3mnU/1p+LpRwDFFGugmYNgP6ztZp0esLHBdBtMCn6XAXNGABrIPT/z6pUMb7vpFCyxJsNT1Wnk9LFuo7kCXZTUpIMX220caWI15Oqb+d2+2nBZ8hmz/XwhvGkGdtmlXLNtNy4vltuhkamhYghiwbfvc6gTrJdm89LiOwCareM4ZPlutc57QRZSzk/+50WtnHbuD1mCp+rqtPNCXNafTIIj0Pgl6CMDXonnJSQNP8CDdq4jgJRIEErlnK2VWAQYZvVXSAUrECCZhzasHvN7769tOO8bkfh4CwoEsE7bEkEg0YiGDQSwaCRCAaNRMw8aBzvehw8DW+4CYeTcSw3t29zXGw+eb5NyGmAnL427o5cv/e2UTSEOt1uErcl09RR/t0kivvx0c/dRXxiyyqypTSUs/FPqwGi+cQaz0ELonQZd+Oi6+pRjSO/H0f7pDb1K+lpmn6YE9Bw9foysO8qDrXqdLIP67wDLxNLlJfrULpNhsynxEEO2c0Ors40JPaC3fdMqs5J7bNxHYBJYVPWFQA3gR7jY6MUMsiigUq5B6WQQSrg/YtUndNmmAfxHpPp1YHOrlroP60vFRstGVcVK4UM8nsKtCltJXfHZP9+/VLGvOxBu8vaPgWArvV1oF5u4YnxM143UHnT/4Z17fQSFW8fxJHQq86gwvKgVHvwy00iX0oOfxqeNDWO/GESOLtAZRAKpZBB/jCH2PDEDk76dQOV455h/znkN/yEaZwlbB2t4VO5hvpgiVLIIL+fwVZb/wMYBB9NVMt6o37QGTDsqR964Op1bfiH0+8MWN8zjmwpDk3/Pahx5A/TyO7KtGt9V51Ovycj6G1x3kTlvAlgci+r/xS+piks2ukvuHqxg1R6FTjvjZ5t9aZn2n89HUf2xfdQTs371U4vUTmdfojj3ePDcdO0RHt7A20viVgCQAvAropUTMPV60k9x/4ToLWzC0eNdlOJ2foKDYCysQQg/KfgBNJGczLlLYxtp1vCkzVAe//FcrLu0XqvIfViGQp6/Tbe9ccHX2vfbnSA/WUosKmu/LKr7gzvo2ysAHaPqTRSl6HA6eOSNHRNH7CHuuDg98zG0ZzyOns90gYhM7Xx9Cp+QbkOmtNJu0HxF7J7/HYLKA+qv/7DOXD7sb/sRgP21pBAz1SqJdJxoNsMvDRTNlYAdPBuWtsvZilN1WVT+2ywt1F1C0AvxaMm1JnqToT9pXn96i+JbOHLsPRQCs/77Z9/Dnpcg/ZR9uB22AvDbhLZMQ+/9dvr1H69A7CCJyrQbmFYmhlDpR/TdqGF9rDxbl4HrS/43AVSf41DOe9AM/acuw/fd5YCn6luXM/pzHbrtoE6b6LS/or84Q6Kw0HIDurl5qj0anVQLX9FtpRGsaQv1Ew9uaCPqZ7OIXuYG4xXabh63UDsMD1ap9VB9WQZxX39uDuoly/w5GgHT4cr3ePDcQOxUnrY426f1FDdyCD/wuUxGYKsS+nHZxgG8Sq0ySlBtKkWql32yHEWFImY+Y2P9DgwaCSCQSMRDBqJYNBIBINGIgILGieO0CQzvage9LQ9iq5AgubnDgu/0/ZoPgRy46P160RnUvpwut3QQk23A+yvRboNWyClFafbBShi0+2mff+/nyfcucXpdsGI3HQ7J1/xLlmNcrqdf5Gabmd9Isqkxyrqr097iopMz5PT7eZqup2XEx3UAyseBJLT7UbbPYbpdkFxPfWO0+3wKKbbOXmKnN8xNf89Uk63M+55Lqfb8SlyPnC6nRyZaXucbhcVkWmjhVUacrpdNHiaQOz2Na/VbCCz1Dndzpl5nW4XFLb9FkPkg0aLgXfYkggGjUQwaCSCQSMRDBqJYNBIBINGIhg0EsGgkQgGjUQwaCSCQSMRDBqJYNBIBINGIhg0EsGgkQgGjUQwaCSCQSMRDBqJYNBIBINGIhg0EsGgkQgGjUQwaCSCQSMRDBqJYNBIBINGIhg0EsGgkQgGjUQwaCSCQSMRDBqJYNBIBINGIhg0EsGgkQgGjUQwaCSCQSMRDBqJYNBIBINGIhg0EsGgkQgGjUQwaCSCQSMRnoJWLOXGLrN7ze++JbencAReolXKNZ5seuDbWR+AH+MC7STolXIt6MOhCb559uzZ/9xuVCzlTCfKy4n1UupNC4f1uCg6AivRrMFzcsLt1hm3Lavj+eYqaMaTHbUTbwzopGNjiTcbroJmPJF6o1//13pyjT9Ln1w3JSXJ8FV1Gk+cl6rTyhpgN9s52S/NTiQHbN0MkUwLEUMWDYF1BvxWndZAOCnZ7F6fNJhsxPDJmmmvc9r608I2bhsn+yZZnqtOuw6A1/0wCIvP8/BGUOGYth+GcDG4Ht5wOqBq/ZmBedxct9HctJeC4HeohKIhksMbRl7G1fxsR+HwdFGdyK3Il2i0GBg0EsGgkQgGjUQ4Ht747rvvwjwOWnAs0UiE6wHb33//PYzjoAXHEo1EyEy3U+PIHyahndRQPx+30iqypTSUswtUT+9FDmuSxEEO2U0A6KBebqI96wOaYB6Oda7ndZrsJlHcjwPdJqrHHWg+dqUUMshuRuGk9f/4EsZF1w1U3vRMa7Xf1FDBIHBHX31//jAsQNAGJ+O6iasukPK9vyWoLxRoZ79EoGTooW66Vtv/rMWDh2EDgPZPTWiH61DVDj605I7SiTlvoy1h6ygNnNRQefNl1gcjoId3ZxqwuWYu5eaA+xJNr6KG7KqYJWwd7SAVM29qLc5HbQv7dZRCBvkXN6gef8W2oQrRhu24e3w4lrw7o/+5nr6/QB3Pkd9TBsvHVLP678qmuvOl+zVyVeM07oIW/zPy6VtUys3Bgv4v3twu0KuyBirHg1/uoDMwMggimqiWzdspsIglkS8B7ZMaKucYnLzn2Hp7ObPqQdnbQf66gUq5B/24swe3wYbJjhpHdk9B++RywYPW+Teqb4zjaPdovdeQ2luGgn5ppBR+RAId1Cf90ndVpGIarl47abRquHptCFX7KzTEEUsACCNo6vd4GtPw+e2Enq+phOrh0zWQWFuGgp7585w3UTlv2uzADUuH4LqB6riee+sLPneTSL1axYewQ++S66rTrroD7ob/U9YV4PrjxIa0srECdG/QchSUO/xmXK/VQbXccXy8jg1KXaXbRLUcpRLD3CFIHORQLI3rEfebEq1CBsWSYmhizJ6roG387SVe/sVcwiiFDPJ7YRyaMD3Aahz5Um7KmN/stN800C6lsV1oof0gRKOxyEo5GgHTueh1/hErfwJw/XF622ht2dzWSizbtL0sy1SbdWah9QWfu4CysTTrI5lI+9UmSOoyFEyp9mfERdD+i7v/wBSifmlmjke70QFiSWzvDhY86KUC2tsbaIhjuzA4mXq15ekjRNhusj//9WA1oB32h3MS3SbeRbC0ncRV1fnrv67R/scm8qVBD7LbRPXkDvl9w0rnTVQ3VpDfz6G4P1in3MB2KT1ap9VB9WQZxf0dFPeA/vDABZ4c7eCpyw/wMOzJ4fG1I1r9OWb3R3p2gUpE2l1uOJ6cot+Ptvh3b4zGyqLSkHZMjSN/uI7Pr2c39DPOnF8ZCMM9frsFlD117kbflZfrUKy99IhgiWbLeGUjChfXJxsNOVnGHCOEQSMRrDpJhOsrA5ykQl6wRCMRjks0ts3ID5ZoJIJBIxEMGonwGLQlbB1lsKU6XF2NI19ysT4tHFdBUwqZh3ci7CZRPIpPvPMi8SoJxcntRbSwXAVNO/0FV2tpFEsqYrd3iL3KobgfR/vnSbdkr+KHTaDdiNatxSTL41eLOp9VPprJFL1JrSTHZRttCVtHORRLa8B1B9r6DooT216DybjvvzBkj5zLNtpzpG4bqJRb6K6toPtTDZWTO6T+PqaNNpjtFMVbi0mWq2ud2uklKgAAw/30583+fEsbiXR/8iw7AeTxuzfu8eH4cvIqahzbm0D7hJ0ACnHAVnm5DmUOJ1FQOEIKGjsBZBZO0HZVpGIdvJu3yR0UmlCC1u8E3Eb6PnuSFXzQ9E4ArwSQQeBBYyeA7PDpdiSC96ORCAaNRDBoJIJBIxEMGon4P4PdelpolA0QAAAAAElFTkSuQmCC;movable=0;resizable=0;rotatable=0;deletable=0;editable=0;connectable=0;" vertex="1" parent="1">
                    <mxGeometry x="330" y="325.5" width="154" height="209" as="geometry"/>
                </mxCell>
                <mxCell id="6" value="" style="shape=image;verticalLabelPosition=bottom;labelBackgroundColor=default;verticalAlign=top;aspect=fixed;imageAspect=0;image=data:image/png,iVBORw0KGgoAAAANSUhEUgAAAJcAAADwCAYAAAANbvabAAAQIElEQVR4nO2dv2/bWLbHv7NYPMNjxpr12pCIzGZlII4tCAFsQIaKbZRGhaHqbefStZtXq9Z/4Dplut1KcOFm1GwhWIADBIbiZAALyASSMF6/yEOP4dfsKyhKFEVR/HVESv5+msQUSV3pfnXOuZf3S3734sWL/4AQAf4QdQPI4kJxETEoLiIGxUXEoLiIGBQXEYPiImJQXEQMiouIQXERMQKLSylmUTpOQpnwWqG4FPQtyJwSUFyr2NlX0PlXF5qxSU2iUE4jZdkvV85iSw32bmS+CCauvTWk0MUvF6Zt7S4a5yvIlfPYWb+Htq6iVM4gdf0Fn9vBGkvmi+/8r4pYwtbxLp5/eo/a2aPtHqnDPHJrLdROTJGNPBn8Ry71BzxPaPj6YVxYSjGLUjmPH9FF53YZhXKetdcTxLe4Um/SUHo3aFtTnZpEbv8ejUodH29WoNy0Ua00oe2/ZM31xPijv8NW8eMm0Dm1SXftLmoV/b/DEeQdGpVLf29F5hZf4lKKf0EKXTQunPfTzi5R8/MGZCHwkRaXoL5SoJ230Qm/PWSB8C4uh0KeEDOexZV6k4bCOSviAo/i6hfyzTuZ1pCFwpO4jEL+lymFPCGAJ3GxkCfeCHD5hxBnuJ6LiEFxETEoLiIGxUXEoLiIGL7FVSrnHbdPet3veWd1PAkPschVrdTZ0U8cn+u53FGt1CVPPzV6OiHdNiIoLnMH23WkkwAmvWY9j/XvUjlP0cQIT+KydrrxtzUFuu3kSaLzKkYSTzyJy9zpVhEY/48qepjf10mIjGyzw1dadBNFrPvMslO9REQiR6Caa1K08NuRxnFej58mdgorGjxPRZg7ylxrVSv1ke3m/b3iZRpjmnAorOgIPFoMq2Ptajg/wrETpd02Ck4ez6PFaZ1ijWZBzjtNYJOO8dpmIoOntOilk9ymRnb+4hL65R9zUe4GN5GQzCehimtSsU+eJqGIq1TO26a3MAQW1eoKEpxQxGWehrB7Lei5/dRlfo8j4UH3DxGDK1GJGBQXEYPiImJQXEQMiouIEbm4OB+1uPiaivAiCDfzTF6WNnPean7wveTGrWjcvjZp5WrQtWEkOkStZU54jUBTZ9v30igdJId/9xbxyR2ryJUzUM4nP7UEiM+TS3yLK4woMmmxn+fUpyZROEiic1qfevty4kDIP1DRtOjmHNZ1+H7MFcrrdSi9FoUVBDWJwsEKrt7W+zdT1qNk4fAB1Xf+7oEbSVp0qrcmFfFOAlPWFQA3obbxydHuolbpmjbc4eO5htT+GlK483Wr0pmkxWlO6TDewxn9Vzh8BqSGq7eXltud609h204Mt0xKs0oxi8K+Am1K7eOtTfbvlzrMI7c5um0sTVnTGQD0rK8DjUobz8yf8brpIiqt4JkKdHzcGl48LYYlkLHoNfaFplEopwd/DTpKTaJwlAbO36PaF4JSzKJwlEdi0Jn9jr5uonpyZzp/HoWNIAKaxBK2jtfwS6WORn+LUsyicJDFVscQfV/saKFWMeqefkFvOpMudJjSmVHQW98ziVw5Cc34HtQkCkcZ5PYm16l6RujiN5/PHAicFt3e1yHsY3HRQvWiBcB5dKQ/Xa01IhDt7GdcvdrFdmYVuLgbPsvI/Cu+aKGRSSL36gcoZ6Pn1c4uUT2b3sTJPOLzSWtki/bhBtp+GokUgDaAPRXbCQ1Xb50Kav1Jvdr5e1cPnRiJjO0HaACUjSUANj+evTRymwh09+5Qai439i6JY6ezhGdrgPbpm6WDHtH+pGH71TIU3Om/0OsvY19ip9kFDpahwCYVBcUulZneR9lYAeweOWhGXYYCt4/K0dAb+YB3aEz6EfdH3+i10AgQtSOb53KLXxd2rOkLa6RmM9J31PTboaCLRsB5Ms/icmtEDYtgwnrEb7eAMpba9Ac24PaLvu1GA2xGRamM/usNO2opGysAuvg4LSokLFFTXR6pt/pnG6ZSAEa09scqcoawKq3AD7MQdVy7QfpGbXpqSyNX/DaIEkrxpV7P/EOvsYx6J3d4Oxw99WsOuweWBh0tar/eY2QUNogWQyEZbdopttEZFOCj+6D9DV97wPbfklAuutDMI97e+Ps6s4St44xee4YgLEDAcW3ez61D23psqFy0UO08oHC0i9K+sdHyBba7qFUekCtnUCobG7WREVjYbWpk8sgd5bE9eK8mEkeZ4T7tLmqnyygdGO3uolF5j2fHu3g+2OkRn0+aSJQzg5Fy57SO2kYWhVfemqT/4ABjVDmCqymLccQMGmHUSAtVZz1B6P4hYkS+WJAsLhQXEYPiImJQXEQMiouIQXERMUITF80TxEqkF67DtqiReBGKuIKsXAhqUSPxJZTFgtZbVUYSZWgtGzD31jLA/tqfV4GFEpVoLQsRY22/nc/AG4EMGk63qgzy5DKv0FoWDroZpIurcw2p/en7T8P3g6Wm3Ux3limS1rLgKMUscmiiWrmDUsz2lwIFw9fzFifdx8Hpbs6TRDabESOtZdOsZdrZJar+PshEfD9vMaxjfNdmtJYNjxOylgUlNgYNzzYzWssgai0LgVAd10Ef4Bn+kmday8xndm0tC4nQHNdckuyBOFvLQiSytDgbixqtZVESm5pLKurRWhYdvkyxXl/zm0JDcVvTWuYOk3gNto32xc1aFhas5eaX2IuLzC9ciUrEoLiIGBQXEYPiImJQXEQMiouIQXERMSguIgbFRcSguIgYFBcRg+IiYlBcRAyKi4hBcRExKC4iBsVFxKC4iBgUFxGD4iJiUFxEDIqLiEFxETEoLiIGxUXEoLiIGBQXEYPiImJQXEQMiouIQXERMSguIgbFRcSguIgYFBcRg+IiYlBcRAyKi4hBcRExKC4iBsVFxKC4iBgUFxGD4iJiUFxEDIqLiEFxETEoLiIGxUXEoLiIGBQXEYPiImL4ElepnJ+4ze61oOee5fEkPEKPXNVKnR1MAAB/jLoBQZgkYjfirlbqYTeHWPjuxYsX//F6UKmcH+kcP53pJ7pNE4S1XSRaQotcVrG56WS7fSYdy1Q7f3gSl7mD49bZZlE6tY2RbXZ4Epe584zC3fjX2qHmv2fdoV4iIpEjUFo0d5aftGjFKlovx7k5L5ktsZxE9TKdMU04FFZ0hFbQB02LVhG4iWB2rztN8Jqh4OSJdLQ4bf9pApt0jJtzE3l8p0W7It7vedj5i4nvqYiwBDHtPBTe/OJ5KsLtJKf1b4rk6eG55vJS/4RB0GkNEh2xnIow42feK8hxJDx8XbgmxA2xj1xkfqG4iBgUFxGD4iJiUFxEDIqLiEFxETEoLiLGbKxlahKFozS00zoaF5N2WkWunIFy/h61s8eZNMuJ1GEeuU0A6KJRaaETdYMciGtb59q3OMJeGqWDJNBroXbShRbgVEoxi9xmHDpK/8GlzJuum6i+uxvZq/Oujir6Ijt+CPz5w2IBxNXvgOsWrnrAduDzLUF9pUA7/zkGEeAOjZFro/pnLR2OCwwAOj+1oB2tQ1W7+NyeXSsnMec11xK2jjPAaR3Vd9+ibswMuMPHcw3YXBuNZjHFe+Qy0s8Au/SxhK3jXWwnRg+1huphrWC/j1LMovDqBrWTB+yY0oM2qMse8flklqse9M/1/NN7NPAShX2lv31CCjW+K5tUFojeQyzS3jS8iUtNopC5RbXS6m/Qv+zRPG+kqSaqJ3fD447SphP1xYcWapXR4xRYSKRRKAOd0zqqF+h32EtsfbiMLPQr+7soXDdRrdzBaHfu8DZcAdmhJpHbV9A5vVxAcbW7qL0zb3hE+5OG7f1lKNCjjlL8C1LoouH0Re+p2E5ouHrrpvDUcPXWJKTOAzQkkUgBkBCX+gOeJzR8/eAwYh2JRHf45RpIrS1Dwd3o57looXrRsjmBFyxF/XUTtUkj7vY3fO2lsf1mFZ+lhe4Cz2nRLpUB94P/KesKcP3FsRhWNlaA3g3arsRxj9/M+7W7qFW6rtvrmn50VXot1CpxigyjRX3qMI9SedJIVi8T2sUsSmXFVD5Egydx6cIajSRKMYvCvkTTZowhWjWJQjk/ZU4uOjrvmuiUM9gpttEZE85wrrBaiX6u0MNocQnP1gBcf5le66wtj9ZOqWWbWsqyTbXZJwra3/C1BygbS1G3xBHtVxvxqMtQMCWlzxAP4nrEb7cYEY4etUYl0Wl2gUQaO3v9DWOjS0D7cAMNSewU+x1opCRfHyHG7KV1f+fhakgn1KdeUr0WPsYwqlrxlBaNkFwo90d+vRZqp/coHJh2umihtrGCwkEepYP+PpUmdsqZ4T7tLmqnyygd7KK0D+hD+fd4dryL5x4/wLjA04P2dWKa2lxj98M8f49qDC6PuYEGjTGGc1lxuMbpCTWJwtE6vr6NbprGzJzP0Eugp39lX52LWXAzyut1KNbRdYQwctlivsIQhwvYzgynhyxzghFDcRExmBaJGBQXEYPiImK4nuf6/vvvJdtBFhBGLiKG51URv//+u0Q7yALCyEXEoLVsAnG1a9kR17YugPtnfAFj0EVy8bGWYfzitY11jtYyIZRiFrk101r8vTRKB7vI/ep3RUSMrGVqEoWDFVy9rfcv6ejRvXD4QGvZLNDOLlE1/1Iv2rjqAalMWGuoIqTdRa1ivlZIaxlmZy1zwM4wEZiYWMuwgmcq0IlBdHLCm7iSf54Da9kSEgkA13LevsisZegbYNCNzbIaJ7ylxe6/URv5AnVrmXk9vCdr2T/cWstM9VPnARoU3VpmQ+owgxQ0XP3ks6N9WsvGfAOAbi2r1MMT3V4auU1AO2/b14Ptb/jaU7D9Jh4lwUJZy/RRHqCd/+y9oI2ttayPmkShf6OVxsSSYI6tZRv//Rqv/xpPa9lgLf11098XGmdr2cDA0kXDcZphbq1l/4WVPyGe1rK99EBYgVNQ7Kxlq8gZwpo27za/1rL/w/3/In7WMiNdhD4iC4HA1rK+lSxmM+9u8ZQWf/3nNTr/sxkja9kStv7eF+VmBqXy6Kvzbi1Tii/70zlJ5MqjP9BY/pgsuF5Db6znWvxVEbSWhcXcz9CHD61lYcHIZQutZWFAcRExmBaJGJ5n6GnUIG5h5CJiuI5crLWIVxi5iBgUFxGD4iJi+BTXEraOs9hSXe6uJlEoe9ifLASexKUUs+NX+PfSKB0nHVc0pN6kobhZqkMWCk/i0s5+xtVaBqWyisTtPRJv8igdJNH5l/MCth83gU4z3lfwSfj4vLOge3f00METD6MmmR0ea64lbB3nUSqvAdddaOu7KDnWUn2D6advFNYTxGPN9RLbt01UK2301lbQ+6mO6uk9tv8+oebqu3zisuyWzBZP1xa1s0tUAQCm9eUXLd1PaEMqoy8/ZiH/NPF5r4hHfD65dN5FTWJnE+icspB/qohNoiqv16HMyTNqiAxC4mIhT6TEtadiO9HFx3kzOJBQERGXXsjfxnrdOZEnfHEZhTxn5J88oYuLhTwx4IOliBhcz0XEoLiIGBQXEYPiImJQXEQMiouIQXERMSguIgbFRcT4f5OkP9715f4EAAAAAElFTkSuQmCC;movable=0;resizable=0;rotatable=0;deletable=0;editable=0;connectable=0;" vertex="1" parent="1">
                    <mxGeometry x="520" y="310" width="151" height="240" as="geometry"/>
                </mxCell>
                <mxCell id="8" value="" style="shape=image;verticalLabelPosition=bottom;labelBackgroundColor=default;verticalAlign=top;aspect=fixed;imageAspect=0;image=data:image/png,iVBORw0KGgoAAAANSUhEUgAAAcIAAAF3CAYAAAA2H0uDAAAgAElEQVR4nO3dzWsba8Me8Ou071PhJ3Os4Dpopk6MXGLLwg21QK6ggaJ04YUQXSQ7L732f6BNN/oPQpdZZnd2wgsvEkMJ1LVAhhBsxykW5PjViBjXciav6/KW08XMSKPRzGi+JI001w8eOJblmVszeebS/f3b8vLyXyAiIoqpfzHpAhAREU0Sg5CIiGKNQUhERLHGICQiolhjEBIRUawxCImIKNZCDUJhewPlvRQEm98VtxNhno6IiCiwEINwHutbAuRPbSj6S1IKxUoaoul9+coGVqXwzkxERORXeEGYW4CINv5sGF5rtVE/foR8pYD1xV9QFiWUK1mIl99x0QrtzERERL79Fs7KMgms7m1i6esJDg8eLN8h7hSQX2ji8K2hxkhERDRh4dQIpcdYSiq4+jwYgsL2BsqVAp6iDflmDsVKgX2FREQUGaEEofgqDaFzjZa5uVNKIb/1C/XqEc6uH0G4bqFWPYWy9Zx9hEREFAn/EPwQ83i6Asj7Fk2erTYOq+p/9kaS3qFe/RL8tERERCEIHITC9jOIaKPecH6fcvAFh0FPRkREFLKATaMJSGsClOMW5HDKQ0RENFbBgtBhkAwREdE0CBSE4qs0BM4JJCKiKRYgCLVBMqd34ZWGiIhozHwHoT5I5s8hg2SIiIiizGcQcpAMERHNhpCWWCMiIppO3I+QiIhijUFIRESxxiAkIqJYYxASEVGsMQiJiCjWGIRERBRrDEIiIoq1EPYjjKhcGuVSqvdzp4nDtxZ7Jk6lBFb3NpFJYsY+1xBSCsXdNAQAyvEJDg+42DsRBTebE+q1B6ayfzR0n8RpJO4UkF+YtgDshbcc9L7M+P0lovGayaZR4cUihE4TZzP5kNQWO/80PSEobG+gXHkOfG2Hc8BWG2eXgJidD+d4RBRrsxmEi8Kki0C6XBrFtWscVr/g4sekC0NENMhfH6Ft09Q88pUsxMtT1N7f9b9meFd/05jaZLb09QSHPyRDv56C83dfRrTXoblMVucy9MNZlnta9a53Hc9R3NK/NLRRrzYHF1HX+1r77qkHjSZqE7lm+j22+VxERBp/Qdi6xVUHyLxMQWgYmuhyCxCh4Pyj/sBMYHVvAX9Wj1DXXhG2N1AsbWBV7g8eYWsTZbRRrx5BhtYP9iaFltt+MPPgGKRRrKS7P3VDTAtxHJ+gpg22ELY3UNwtINkNOkOgv70zHL+A4pPZGKQhbG2ieHmKWvUO+ufN79z4Czsioinmc9ToAy4+tZEpLUKS2t1AE7MpoNNEq2V439tm318qn6+hbKWRFAEYa2Cm0Y/KtQKszKkjBN0UqdFEraGey2kwifgqDaHT7Asz5eAbztc2kcnOA4277l6LdWMoNJqoZ1PIrz2GcOC2f26wVmnkq4aZW1DLFrSW1VfDu8Ofl4C4MAcBd/2fzXBdo0Q+bQOlZ1iV7FoN7lCvHo27WEQ0hfxPn2jcQC6lsPQigYvWA7qDOPZNITFQU1MNBMnNfd9rysEX1A58l85GAr8vAMrXW9P5H9D6qiCzpgaBsCgAl98HmtPUh6+HcMYDLt4e4SKMohubKKustakBPY98paC1JLD5k4j8CTCP8A5nxwqKeg3JqqaiPbz75nzpTZPkjV4zy6VRrjwbYf/pdBC2N1Dc+oW6odmdiMiPQBPq1WZOtXn0Z1YNPOO3cuHJIwBtnEWmT+0BP28AYaB5MwFpTQBuvquvXSvA1gJE3PV9Hr3p1/20hRE0jWo18YGm5Zixq7UTEXkVbGWZ1i2uOmksvUhBWVFw9bE/8JQfvwA8wu8SILfQvzJIoBP7pzZvppHfvu3WUoXt58gkFZz/oTY56v2YfYNHcmnkrZp+HYXYNDopQUeNTow+anSUo4+JaBYEXGJNHzSThnB5irr5YdNoop4tIL9bQAaAOk3hFMndbLDTBtFooibfo7i7ifKW/qKpj6nVxmH1HvlKFuWK/qKC83dHfKB6Njh9RiwVUC5hxMvDPaDTAcSkYOjHJiIaNJtLrM00NVgwE3Ma/RN3CshjSC3Vqo+aiMhkJleWmW1aTedlCvFdP0cdoaxcO4VbAqsvU4hWHzURRRFrhFPJ0NwY090nnPosxZ0C8iuI17UhIt8YhEREFGtsGiUiolhjEBIRUawxCImIKNYYhEREFGsMQiIiijUGIRERxRqDkIiIYo1BSEREscYgJCKiWGMQEhFRrDEIiYgo1hiEREQUawxCIiKKNQYhERHFGoOQiIhijUFIRESxxiAkIqJYYxASEVGsMQiJiCjWGIRERBRrDEIiIoo1BiEREcUag5CIiGKNQUhERLHGICQiolhjEBIRUawxCImIKNYYhEREFGsMQiIiijUGIRERxdo/hHYkKYXi7iKu3n3BRcvqDfPIV7IQuz8rOLd9b1QksLq3iUwSkPePUG9MujxGatmWvp7g8ODB9veZZO+VkXyGXBrll/c4fNuGEuYxSykAUbzuRDRrQgrCeeR308DxiU2wJbC6l4V4eYra+7twThmIFhI3USmPd+LOJjJo2oSg4ffVEAPKSqOF85ebKO4hnDCUUiiWUgxAIhqbEJpGeyFn91CG9BhLSQXnH6ctdB5w8fYItWq0HsrC9gbyK23UbYNnHk9XAPnTiEMQgHqNTiEn08hvJwIfTXixCKHTxFmErjcRzbbAQShsP0cm2UbdqWYlzkEIeiJSSSnktwTI+03Itu8Z9/W+Q32/DWHrOValsZ6YiCiwgE2jCUhrApTjb/YP5WGkFIq7aSh9TWFqf6JwrPd/9frD6niO4pb+mG+jXh0MBHGngPyK/pOhL1I7VzckklmUK72/6zXHmfvX7Pszhe0NQ3kAmJp/xZ0C8jhF7XSh2+8VpH9UrzEFraEOKzeAvr46AECnad/8qTWRZl7N42JKm5uJKJ6CBaH0GEtJQPlh1SRqHhwDZHYLyOg/+OgvFLY2Ubw8Ra161z1+fufGcBw9wIwBmcDqTgrC+zaUVhuH1TaG9xGqTaIXgBYGjyzLowZuG/XqF+1capnKe6bAWMmivNDEYfUIin7uNym0PPepqV88cPPd4u8GB8cIpQLKJe0HQ4i5KbcalMD5uyMtsNXjFytzll8+gAe0virIrM1BwN0YmmSJiMIRLAjFOQho2/Tn3KFePVL/UwuTwKNE+8LzDn9eAuJC78GrNtMqOH9nfFA/4OJ9O8BJbUgprK/A1ESpNhGWS4uQpHbvs/bVpLTA2FKbL70GYTIJyJ+GhLdlLdtLueexviVA6Rv89ICLP5pY2k3jaa4J2eKeKz9+AVumz+7x80lrApSv3xikRDQ2gfoIhSfWNaVJERYFoHON1jimZGhfAv40B0LjBjIEJEXLvwomjL4/N+WW5iBAwdVnU02/dYurDiA8CT4opl8Cq3sFlCvPgT+O7AddERGNQKAgVH78Cqsc5EbrfgpqSr/w0/MXEX107jfgTQHlnflRFIyIyFKwUaPyPRSk8DQXUmkCUq4VIDmmEZN2nz23ABEKOr5HDzl5QKcDiNkAQeGm3K17KBCw9MJU83PsE9ZaCDpBwlptNsYCRxkT0fgEC0KtqSzQg1mr5fSa2wYH2bilHHyHjBTyeynDg1QbLNP3zgf8vAGwsuDrPGq5tc9eShuOMY98KQVcfh/RijlaUIy83Gr/a/90iARW36Qd5vjpA3mmodZKRNQTcPqEPvDjGVYlvwNh9IEamyhvAerUghN03mxiyc+xqifa6Ma09po6VcH8cJbfn+B8bxP5Sm96QG/6hMOI1+6AHbU57+dOoe8YyvEJaiPs41I+X0PZSmN9uwXZ13nclVt+f4TD7Q0U3Y70zUnqQKU/OHWCiKbLb8vLy38FO8T0L1c2bdSpDb9spjFMgnnep3/C9gaKa9fhrl1KROQghCXW1GH1ykqWgxzGRDn4hvNOCvlK2n8TaWi0JfY6TdRDqAkrP34ByTTWI9LvTESz718mk8n/Gvgoyi80v/0z/s1/lvC3bz9ww6/yI/b/cPM/r/HXv3+Of/v4Gs3/9f8mV5TcM/zH5RBrcPIt/nHuMf5d8d9i7T89xbxyhX+MRrWXiGZUCE2jRERE04sb8xIRUawxCImIKNYYhEREFGu+gvD169d4/Phx2GUhIiIaO9YIQ1CuFDy9Pkl+ylSuFCL5WYiIwhBwZZnpY/VAr2nbRQ172OvvGxen8liVxemzBTm38RhhnoOIKApiF4Tmh7bTA38cD3i7sNPPbQxpN4HtFFr6Mdx+Nrv3DAtGIqJpEtEgVJfsgtXGsgbiTgF5eF/abVgg+AlBu0AdZlThO64gJyKadpEMQmH7GcROE4cOIajutK7g/J339U3tQtAYZuaazrBQsautBQ0kpzJ5PY6xlsmgJCJSRTAI1e18lK/fHJfsEl4sQgiwG71dGLjtezP+zilQgoaO16ZRqzLZfc5h5XJTy9WP4/QeIqIoi14Q5iRkku0hCzjPY31LgLw/uL3SMFY1NsC67zCsB/u4a2DG8zmd183vjezeywAkomkWuekTYjYFXN44by+UW4CINv50ajq1Uase9TURBm22NNaIhp3XaZqF/jvzVAWn37nh1GRr/L2XYxERzZJo1QilFNZXAHnfqd8vgdWXKeDyNJS9+PzW1Oz6GP0cy6r50/i6n2OHUQs1N416nc5BRDQNIhWEar9f03GkKKTHWApxJ/SgfXfjONekuO1X5BQKIppmEQpCtd9POXYeJCO+SkPoNH0PkhmFUfUB2jVn6ueMAo4+JaJpF50g1Pr9hg2SeboCyPshbQJrIyoPdz9No14nzbs5nrEsbgfiEBFNi8gMlhn1IBk37Jr8hj3svQyaGSboup5BA8o8OMdqQBFDkIhmSTRqhK4mx6uDZJTjk1AGydjxOvHc6v36f7utwenCnK5hV0a3f+v0N6wREtEsiUQQupocrw2Sufrs1HQ6nJsHvJHXpdi8rgfqZQCK19VuRoEr1BDRrIlAEI53kIxT8HiZeO5mRRkvZQry905G1Veo48oyRDTtflteXv7L6x+9fv0aHz58wO3tbfAS5NIol4B6tenQ5OluEW4iIiKvJl8jbDRRGxpud6iztkFERCMQmVGjREREk8AgJCKiWGMQEhFRrDEIiYgo1hiEREQUawxCirQo7mwx6TKFdf5hx5n05yQal8lPnyByEGT1GrcbJk+SXRm9lMvvPpFcGYhIxSCkSAhSO/G7wo/TMcMsj9V77TZgdnNuN+f0exzj3zIgKS4YhEMlsLq3iUyy94oclRVupBSKu4u4evcFF7ZLz03Hqjxu1nL183D2GwZuF1r3c7xJNjm6WcPW7nUGI80qBuEQ4s4mMmjisDraPRD9EF+lIVyeOoQgIGw/g9hp4jDCIWjmZcePYfzWCIf9PowmTS/sNml2s8i7EcOMaBCD0NF4NgL2Ry+b89ZV0poA5avzguZR4ibkhu0I4vSz0/vtdhIZNa99mU67nrg97rDmWqdzEc0aBqETaQ4CEMkQcVXTy0nIJNuoHwTbumpcvNb03AZC0DK55bf2GUYfoR92zbUMP4qbiQehuFNAfqGJw7f9tS5hewPFLeDc0P+lvib03tQx/V13J4sWfjf2612eovbeqebk30CZrM6VS6NcStmX2zN3NT0xmwIuT71vZCylUNxNQxnoV1T7G8W+z6i9ZnhXfx+q2se69PUEhz8kw3VQ+u4tMLxG5jX0who16mbLrmHnGkUfobEcnOpA5N/Eg1A+bQOlNNZz7b6Hp7QmAMb+r1waeXxDrarXbtQHcHHn3hQ8KeQr6k72tYMH7aGeRT7ndrDI4OAYoVRAuaT9YAgxcaeA/Eob9eoXLWzUMpX3eu/pBfqR9lnU4xcrc0O2nnKQk5BJKjh32qRYSmF9aNOpjdYtrjpA5mUKQsP4RWMBIhScf9SPmcDq3gL+rB6hrr0ibG+gWNrAqtwfcsLWJspoo149ggzt2r1JoWX6QhB2X5dTk+I0h4d5g2S/xyCiCAQhGi2cv0whk50HGtoDVnqMpSQgfzI8xBtNHPb94R3+vATEhTkIuOt7mPbVSFr3aiA9SQBw00T4gIu3R7gAHGpGMASNMczuUN9vo1xahCS1cdHSNx0+MYTCAy7+aGJpN42nuSZkH4NY9Jqe4yCZF4sQOk2fI0UfcPGpjUz3cxjO27c58gMu3jb7/lL5fA1lK42kCMBYPlMtWLlWgJXBpmdjDSeMPiuvfYZujuH3OF6OP+y9XmqCThtO+ykD0ayZfBDiAa2vCjJbCxBxBxl2D/HBmhoAoGM+noJOXzVrRHsZinMQ0MaZOWgaN5BLKTUIMAcBCq7MNTetxrXkOpwNXNX09AAOMEhG+xxLLxK4aD3AduCQudlXM3Dem/u+15SDL6gd2J/eqg8wjGkLfh7+YfSXBe0jNAag0wAf9u8ReReBIASUg++Qt7JaDcmq/0sPwXZfc6LavziZMk+Kq5pebgEigg6SucPZsYLi2mMIB20o+jGN59VCUDk+waF+Lq0WHQZjGIa1usykaj5Ba19hz2v0Ww6iWRSJINSbOfPZeUCew1KyjbO+h3gCySSgHLf89amNgnwPBRbNm3o/mgytWVYw1Ko0WtOv8sNrUI14kIyJ2sypNo/+zKqBZzym8OQRAPO9CleQEIxKbclukM+oyuNUY7Qrl9u/IZpFEQlCfdDMAlavH0G4/G56iD+g0wHExV5TojpQBRZNo2OiDygppSE2mr3BMiVj/50W8FvPsfr5S2+wzJu0v/47N9MhpBTWVxScvwthlGzrFledNJZepKCsKLj62H9e5ccvAI/wuwTILXRrg2FNObFqDgy6BqeX1VKmtZlxGstMNEmRCUJ10MwmMltWD3F9gEkW5Yr20uUpDo+fobg27oIayvT2CD93CshXen1k3dGqGvn9EQ63N1DcLSCjv+hzOoebmp7adHptGNAShD5oRl3Bpm4+ZqOJeraAfPezKTh/d4rkbjbQWa1Czzw4JKxpD5NiNwXDazCH0XTMifQUd78tLy//5fWPXr9+jQ8fPuD29nYUZSIrTiNYu9TpG4Kxz25KeG2aGzZgxKtxhqbTsb2EodvBP8OCjmFIcccgnBLC9gaKa9fOE/G7Cwr4nJ9IRBRD0WkaJUfDphsAABpN1KZocW0ioijgDvVERBRrDEIiIoo1BiEREcUag5CIiGKNQUhEnkxqwXHz3w3737jKEiejvkZujx/2QvgcNUo0g7zsj6i/3+38zaALoYfF70bITscb5bqt47pOUbv3VuWJ2opODEKiGWQ1WT7oA8bq772GRxQm6Q8LCi87hbj93Thrm1G893YLP1gtjOH2uEGXUDRiEA41uP2T7Li6y5QxbKM0U59riO5atWhPZgECKYXi7iKu3n1x2FdSXSkII74vXh46dg/0MALO63qyfsPFzSo6fj7PNDatTvreR2VZQAbhEOLOJjJo4rDqsKLLtJJSKJZS0xeAenibNvv1Qn5/hBq0QNy7930cv8RX6vqtjpsrbz+D2GnicMIhCDjv6xhGGfRzeAmTMGpgftZ3HWV5xmnc9z6sazkKDEJHNpvRzohgu9hPglpDEi+bOO+gt4h5APLHJpRddaspp1AKl/7vymnhdXdbbgXhphbkVAuwE3St2HFx82B2aqbzutdlFD6zbpL33u3x/Vxzv9eYQehEmgttSyEKKoHVPbWZsNZIYHVv0uXxz1VNz82WWwGFVRvwOmjC3HflV9C/9VI7sesjm1bjvvdOxw/al+kmMIeZeBCqu8wPNnEJ2xsobgHnhj4U9TWh9yZz01h30ekWfjf26/nc9siNgTJZncvQD2dZ7mnVvd43eFrJQtReVix3v9D7WpW+e+qeuu3VJOj32PpzeTX6zZWdviXbfWMOsgXUsMEN5qbPMAIk6DGGhZrX0IvKqNGo3fsw6efxWhN3Y+JBqG7Im8Z6rm1oolMfFjD2oeTSyOMbalX9QaQ2kxV37k3Bk0K+kurtCyilUNzNIp9z2w82ODhGKBVQLmk/GEJMHXDRRr36pbcxbyWL8l7vPb1AP+ptzLu3iWJlbkZ2iUghX3mE83dHqLf0z2vciJj65CT1y8DnYZsrD2s6tWf3kPP7rd6qGc18HqcHYlgPySAPvCC1Bj/9WnbXbNSidu+dhDXaeCZqhOqGvClksvNAQ/s/vvQYS0lA/mR4EDSaOOz7Q3X3d3FhDgLu+r5d9w3+aN2rgfSkt7u9M7XmcQE47wHYfVgZw+wO9f02yiW9z2ke61pNohcK+ibDaTzNNSG77J8bqHka+arxhtUH1V/DUz5fQ9lKIykC6AtCw3WNktYtrjppZF7N48LmGrra+cMlvabnOEhmjH23bmtyVj+b/974bX0UD8Ww554FDQmr9zv9HDVRuffDyjLsmDNRIwQe0PqqILO1ABF3kGH3IBisqQEAOubjKej0VbPuUB9FtV2cg4A2zswPq8YN5FJKDQLMQYCCK/O3/9YtrjrAkutwDvNhbGyiPMJh7GttakC3tjdQroTV/GnDVU1P//I0ukEyumEDJpyaB+0eekH6i8KqIYRx7qB9VZOqEboVpXs/ir+dvhohAOXgO+StrFZDsqqp6A/v/jlfav/iZMo8vfSaWQKrewWUb0bXfzod1OZs4fjE0Ow+Gq5qerkFiBjtIBmd32/uVn8bRjAFPabVw8/PgBi/n2WaaoTjvPejHmQ0IzVCQG/mzGfnAXkOS8k2zvoeBAkkk4By3IpOn5p8DwUWzZu5BYhQcC5Da5YVsPQigYuW4fNoTb/KD/cPu/CbRrWa+Npg03KsSDa19tCNfpCMWZg1rGFD2oOOHAxDGEHs97OM4otBEFG7916/ZASdcziVNUJAHzSzgNXrRxAuv5seBA/odABxsdeU2F0ZZKBpdEy05s1MKQ2x0ewNlikZ+4C0gO8bPJLA6pu05z6gMPupJiPoqNHJ6X4JCTL62M10CCmF9RUF5+/GW0P32z8XpE8oiKA1N7tjAv77uqwevObXhh0vlH9nHo373tvdt0l/cYhMEKqDZjaR2bJ6EOgDTLIoV7SXLk9xePwMxbVxF9RQprdH+LlTQL7SmxrRHa2qkd8f4XB7A8XdQm8C+Bj/oc+SwVpxGsVKGsBol4dTfvwCIAArvX5sr9zU9NSm02u0QviSMIpv3vr7dX5rTmHN/wsjDO1GQdr9zk4YD/bev7NnWJX8f1mM2r236n/Uj+X0O7dlsXu/l/v32/Ly8l9D32Xy+vVrfPjwAbe3t17/lCJE2N5Ace16NuY0+uVqzU/rPmpv57AZfdzV66sMOljHzShItw8Jr7WaUXL6XMPYDVxxGxh27/cT6vbnDPjvDNG798NGpob9O78YhHGmTfSfurVGQ6TWMn85P3i06+R3RKmrLxzdxQlmYW4p+RLw3xn5xyCMOWNzY5wCsbf7hEOfpVaTExCva0Pjpq2hC/47mxQGIRERxdq/mHQBiIiIJolBSEREscYgJCKiWGMQEhFRrMU6CIdNxAzjWGHxW6Yor3dIRBQF0VlZZoY4hY/bCcF+J4zaTf4N8xxERLOEQRiCYVuYuOEUWl7XVrR7T5S3hSEimpSINo3OI18pIJ9zfpe4U0B5Z348RbIR9nI/k158logobiJZIxS2n0HsNHHotMKCz5X67fYMMy/26mY9QvP6faMIsLAXGSYion4RDEJ3+7b5Xanfza7MVgvUDjtWGNzsku0mDN2EuN/tZoiIZk30gtDNvm2Yx/qWAHn/SyR2TXAbnLph4TQs7Nz83q58bspBRBQnkQtCVzt05xYgoh3a4rRBmhuHbVUSdMdru1qil2My8IiI7EUrCKUU1lcAed+p3y+B1ZcuwtKlIP18xtpbWMLcbNR4PKfzERHFWaSCUO33azrX9KTHWEoqOP8j2A7vdjtTuw21KA9acduvyCkURESRmj6h9vspX28d+/3EV2lfg2R0+morbvvX7EQ1BN2KcpATEY1TdIJQ6/c7GzJI5ukKIH9y2Ol7iGH9a6No7nRDP19YAWVeXs34mRiCREQ9kWkancQgGS9GHR5B+wbNcyDtRokyBImI+kWjRqhPjv84fJCMctwKZZCMFfPk9XELMuLUWNMdtgAA+waJiHoiEYSuJsdrg2SuPjs1nbpjFQTDalFhnGOSrFaoISKiSATheAbJGJmbCIfVvPzOAwza1BlmX6HdSFIGIhHF3W/Ly8t/ef2j169f48OHD7i9vQ1eglwa5RJQrzYdmjznka9kgf2jifQPEhHR7Jr8YJlGE7Wh4XaHOgd4EBHRCESgaZSIiGhyGIRERBRrDEIiIoo1BiEREcUag5CIiGKNQUg0wzhPlGg4BiERucZFGGgWTX4eIRGNhZsAG7ZnpfH3dsfjou40bRiEAQjbGyhuCd2fleMTHDpuIxWEurqO2P25PWQ1npBJKRR3F3H17gsuLJe5M5dPwbnteyNASqG4O4ezcV7DgfM7XU8g7BWV/C7q7mX5QdYWaRoxCANQDr6gdgDoDyxh2B8E0ltdRw3gkZ7MZB753TRwfGLz0E5gdS8L8fIUtfdOO4hESKuNs8sC8pVhy/uNhvgqDeHy1PGLgrD9DGKniUOPIWgOI/3nidfUcmmUSymg08ThW/97ihKFjUFIQxhCzq62q+0Mcv7HlISgRn5/gvO9TeR3bsYc4NoG0/vO245JawKUr988B4a5+XLiAai3Flw2cd4BMhMuDZEZg5AcCdvPkUm2UX/r8NAW50ZcGx6VB1z80cTSbhb53PgWdHdV08tJ6nUfWVO7e1bNne7DVf0ihf0j1BoJrO6FWzaiMEQnCKUUirvp3gPVopnN3Cdnfo+4U0Aep6idLqhNMACs+6rM/VlW50tgdW8TmWTvFdlvX435s420achducWdAvIrg3/d38+p1UqOvwVsOnRXpmH315XubiY3eGq4x7b9t602zi7TyL9MQWhY3xO9XOH0Abur6YnZFHB5GlqTbZCaYbAa5QMu3k66RkrkLHEgeF8AABtTSURBVBpBqPUdKMcnvea3XBr53F33Yak+uNuoV79oDwc1zMp7plBZyaK80MRh9QiK/gB+k0Kr+x43/Vl6U84panpNKJdGuVRA8YnHh2EujXLpEc7fHXXDWNwpoLiHEYShu3L3rqXWN6YFNcwPeukxlpKA8sPq8w5+mcjsFnrNXt3r67VMQ+6vKynkK+o1r7f0IHuO1c/WA1Pk0zZQUmu1I++3yknIJBWcO20wLaWwPrTp1L1oNI8SRVcE5hHOI19Sv/32PYQbzV6NoftgMA5quEN9vw0kFyFJhsP11bYe0PqqAElj010CySSgXNs/iITtZxDRRt0YlI0m6peAsPbYQzNgAqsvU1COv/U9gOWPTSjmcofAXbkT+H0BwOVN71q2bnHVAYTFRP8BxTkIaONPy1qwOninVj1Cbb8Nteat/Vw96n7JcFUmL/fXlf5WAOXzNRQISIo2b5fvoSCFpzmbox18Qa16FMqIYLWm9915kMyLRQidJs4CNtVGZpAMUcRNvkYoqSElnw7rg2oPPhgaN5BLKfUB53qY/h3OjhUUtzZR3oJ1E+yiAFx+H2iW8l5zUENX0M9l4q3cw7kr9wN+3gBYWYCIO61GqNb85E+m6/DkEYBfoy9TqPc3wlzV9OaxvqU2R/utnRoDkNMZiIabfBBOQHfaQy6NcimLcgUj7bcb7fxC75RrBVhJIV9J9V47Phnos1N+BAvB6aKgM+I5FHpNz7GfObeg1qAD/HsZVQ3QGKpWI1PZBEvTavJB2LqHAkB4kgBg839++R4K0niaa0I2PkRyCxCh4NzvA6zRRK3R1AJxEZLUxkVLC4otQ41JI2bVOVDuw/IBnQ4gLjp8thC5K7da43A18MfuuoddplHdX7fEOQj4hZ8jrXVOZpBMGIY1sTIEadpFoI9QbaoUtjaRN/bR5NK9n7U+LLGUNgzO0PsWnftb3NCbAH/29SmlkN+Z7y/PCiB/8lJrfMDFpzawkkVxOzH87VIKxUoB5coGVn30H3opt/rFYwj9umfnh783SJk83l9he0Nd83IvFcq0DTWU723va/d8O/6vgz4d4syppielsL6i4PxjdOZjdvt8h4QcQ5Cm2eRrhNCaKn+oIwnLJe3Fy1PU3uvvUIdg/9wpDDTn2U7ytmOeygBgYLmyVhuH1Xt11GKle7a+kZ+AxRSEbl+g4XiNJmoAyiVTP6FVU6zTfLyBcgvda9FtenVVbnUQykB5LMukDjbKbD3DquRzuTRXZfJ2f4XFEGctdvvt7L/gqE3EQn+/qkduanpq0+k1WiHUTJ1qaOOuvQ1Mi0EaxUoaQIApSUQh+m15efkvr3/0+vVrfPjwAbe3t6MoE42SFqiK+QFkN4VCn4JyM0XLp7nm9rPp8yB9ru9qd837aMv0hdifPOowZHMozYoINI3SWNnVOrXXB+cMqquvKCvZYE2DESTuaOE2LOBzEjJJQDlu+aoNupoOoQ2ScWw69cjLYtlhH59omrBGGEODTVXA0N0iXO2WMEXc7D5haI5mEx7R7GIQEhFRrLFplIiIYo1BSEREscYgJCKiWGMQEhFRrDEIiYgo1hiEREQUawxCIiKKtUisNdqjL2XVe4UTmYmIaJQiFYTiziYyaOKwOpp9AaebuhZl3ybrFpsKExGRNxEKwnk8HbILQLzdod63tqMajOUdhiERURDR6SOUHLYgIgvqPo7q1kBERORXhGqEww0sFm3VNJhLo1zq7Wlnue/fMN0Fpr8Bbwx9llFsirTcUFbvax2ykDYREU06CAcHxwjGzXkNIaZugttGvfpF2y1Aaxrc671HDUoYNn1Vj1+szPnYR05AZncT8v4Rag1oAZtFPheRwTtSCvktAfL+FzYlExEFMOEgVHcmvwCcNy/t7iJuDDN9p/VFSFIbF615rG8JUI5P+nc+/6OJpd00nuaakD0GWN+I1cYN5FIKwpMEALd7xg0Gve3xXTENmLk8xaHl3xuuKxEROZqOplFxDgLagxubauGUFAFgDgIUXH02hVTrFlcdYMlTgIUl7EDqHzAj7hRQrvjcNZ2IiABEabAMeSa/P4WMFNa3E5MuChHR1JqOGqF8DwUWzZu5BYhQcC4DaN1DgYClFwlctAw1P+kxlpKA8mPctUEg/KZRa5P5bEREs2E6glBr3syU0hAbzd5gmVIKuDzV+gTv8OclkN96jtXPX3qDZd6kIXSalv2Oxd00BIxyZOUo++oSWN3LQuw0LfoJewHMlXmIiJxNRxBqgfJzp4B8pTc1Qjk+Qe2gVxuS3x/hcHsDxd0CMvqLdlMexCmbt2ieFoLBz9/zgJ83AJKAmJ0HGhGb8kFEFCG/LS8v/+X1j16/fo0PHz7g9vZ2FGWiMOg13ijOfSQiihAOlplR4iut2fcjQ5CIyMmUNI2SW73VdzitgojIDQbhjFEOvqB2MOlSEBFNDzaNEhFRrDEIiYgo1hiEREQUawxCIiKKNQYhERHFGoOQiIhijUFIRESxFrF5hIO7NczUotHdhb7VdUIPLdcJnT3iTgH5FYCT/IkoiiIVhOLOJjJo4rDahjLpwoRuHvndNGC7UHb09AJM5Te85fdHqOnH27vH4dtZvL9ENK0i1DQ6j6crgPxpRh+SuQWIaONsSkJQ2N5AfqGJw+oRatUj1PbbELY2kc/5P6b8sQkluQhJCq+cRERBRScIpSnbFmnGKQdfUDPW3BotnHe0bZ2IiGZIpJpGh+ktKK2x2mLIvG9fpzkbTXG5NMoloF69wdNKFqL2snVzpd7XOoJNhxfmIOBuZNdTv8dx6kMlosmacBAODo4RSgWUS9oPhhBT+6vaqFe/9Haor2RR3uu9R32IAufvjno71O9toliZm5FBGinkK49w/u4I9Zb+eZ9j9XPIYWcpgWQSwOX99H+pICIymHAQqjvPXwDdEZWK1ShRKYX1FUDeN4bZHer7bZRLi5CkNi5a81jXahK9UHjAxR9NLO2m8TTXhOx29KnFbvBdPmuYYjYFXJ4GDOP+Gp7y+RrKVhpJEUBfEBqua0jEnSzEoPsbtm5x1Ukj82oeFzabBXP3DCIat+loGhXnIKCNM3OQNW4gl1JqEGAOAhRcfTY1p7VucdUBlp4kALhsams0UWs0g5cbvZGX8v4RalM6DUTY3kB+BVCOvwWseaoB3dreQLnC5k8iiobpCMIpZpw6UH45ff2V3X7Zy9MQQkttzhaOT1CrMgCJKBqmIwjleyiwaN7MLajNdTKA1j0UCFh6kcBFy/CQlR5jKQkoPzw8eEfQNCqftoGSOjJ2aoIwl+6G4MCgJD8km1o7EdEETUcQas2bmVIaYqPZGyxTUvvd1Oa6O/x5CeT7Bo8ksPomDaHT9LY6TYhNo5MRwqhRKYWidn1DCUGXjDXQcZ6XiOJrOoJQ61v6uVNAvtKrqSmmVVrk90c43N5AcbeAjP4iH6g+aF8gAGAli3Kl/7ejXPZO+fELgACsLEDE3QyM9CWiqItOELbaOKy2Hd+i97c5mdlRh43m4GAb22sWdNRo+KNOXWu0cP4y1TelhoholKKzssysk++hIIX17cSkSzIxwotFCPiFn05NtTkJmSSgHLdYGySisYhOjXDWtdo43J9DubSJ8lZcd59QcP7OZmEDw84cM7XjCBFF3m/Ly8t/ef2j169f48OHD7i9vR1FmYiIiMaGTaNERBRrDEIiIoo1BiEREcUag5CIiGKNQUhERLHGICQioljjPMIAuutiakY7N1DduUHs/twe72bDUgrF3UVc2a5dai5fgHVOx0FKobg7h7OZ2LCZiIJgEAbQW85N215opGe7Q716BEAP4JGezGQe+d000LfpsVECq3tZiNO0rmurjbPLAvIVjPcLBRFFDptGaYheyNnWdqXHWEoG3L1+AuT3JzjvpJDfmZ90UYhoghiE5EjYfo5Mso26U01PnBtxbXhUHnDxRxPKShb53KTLQkSTEp2mUcNakwAst08y98mZ3yPuFJDHKWqnC4aNda36qsz9WVbn0/f0673iew1M82fzubmvO+7K3Vv/s19/P2cC0poA5fhbwKZDd2Uadn9dyaVRLgH16g2eGu6xbf9tq42zyzTyL1MQGtb3RC9XnNaHJYqTaAShtiN83/6CuTTyubvuw1J9cLdRr37pbcxbyaK8ZwqVlSzKC00cVo+g6A/gNym0uu9x05+lBeXlKWpv7wxlLKD4xOPDMJdGufQI5++OumEs7hRQ3MMIwtBduXvXUusb04Ia5ge99BhLSUD5YfV5B79MZCz3gfRapiH315UU8hX1mtdbepAZN2zuJ5+2gZJaqx3NlxMiirIINI32dprvewg3DLvKSymsrwDyvnFQwx3q+20guQhJMhyur7b1gNZXBUgam+4SSCYB5do+zITtZxBhag5sNFG/BIS1xx6aARNYfZmCcvyt7wEsf2xCMZc7BO7KncDvCwAub3rXsnWLqw4gLJq2iBLnIKCNPy1rwergnVr1CLX9NtSat/Zz9aj7JcNVmbzcX1f6WwGUz9dQICAp2rxd2yLrqU3zqHLwBbXqEWuDRDNq8jVCSQ0p+XRYH1QbZ+YHcuMGcimlPuBcD9O/w9mxguKWuh2SZRPsogBcfh9oDvRec1BDV9DPZeKt3MO5K/cDft6gfwd4reYnfzJdhyePAPwafZlCvb9ERN5MPggnoDvtIZdGuZRFuYKR9ttFrW9JuVaAlRTylVTvteOTgT475UewEJwuCjqcQ0EUS5MPwtY9FADCkwQAm7CQ76Egjae5JmTjwzq3ABEKzv0+wBpN1BpNLRAXIUltXLS0oNgy1Jg0YjYFdJoewvIBnQ4gLjp8thC5K/c81rcEdwN/7K572GUa1f11S5yDgF/4yVonUSxFoI9QbaoUtjb7h7Dn0r2ftT4ssZQ2DM7Q+xa/B169RG8C/NnXp2SaX5ZLI78CyJ+81BofcPGpDaxkUdxODH+7lEKxUkC5soFVH/2HXsqtfvEYQr/uWf/z7FyVyeP9FbY3UK4UUN5LhTJtQw3le9v72j0f5xsSzaTJ1wihNVX+UEcSlkvai5enqL3X3/GAi7dH+LlTGGjOq3ltcjRPZQAwsFxZq43D6r06arHSPVvfyE/AYgpCty/QcLxGEzUA5ZKpn9CqKdZpPt5AuYXuteg2vboqtzoIZaA8lmVSBxtltp5hVfK5XJqrMnm7v8JiiLMWuwN17L/gqE3EQn+/KhHNjN+Wl5f/8vpHr1+/xocPH3B7ezuKMtEoaYGqmJtG7aZQ6FNQbqZo+TTX3H42fR7kmNd3JaKxiEDTKI2VXa1Te31wzmBv9ZVZaxoUdzaHr5oDADkJmSSgHLcYgkQzKBJNozRGjSYOnzxC0dgMDcCq6ber1cbhO6C4G6CJNGqkFNZXhtTwDM3RvlcVIqLIY9MoERHFGptGiYgo1hiEREQUawxCIiKKNV99hH//+99HURYiIqKxY42QiIhiLdD0iX/6p38KqxxEREQTwRohERHFmv8aYepfo7jzQl2NxGmboVwa5Zf3nrY4EncKyMN+2St1x3HD+iiOu837JKVQ3J3DGZfUIiKaaf8ymUz+V69/9Le//Q34dY+LD018/fbPSJfXsahc4R+tEkO+x1//YR35//DP+Mf/+Qv/d8ixhe0N/MeN/436f7MJzlwa28V/hfN3DfyP/St8/e9X+Pp5BFscKb/wf55lkP8vf8Pdf78dyT6FREQ0ecGbRlttnF06bdXzgIu3p5CTaeSHbUWUS6O4BZy/s6+Fidlwtl5yQ35/gvOOaQshIiKaKWPqI1S3/hG2njvss6fuP6ccf3MIuQR+XxhNCa31Fpzu2yuRiIhmxvgW3W60cP5yE5lX87iw6s/LLUBEG3Wv+wsOHCeNcqm3p53lvn+YR76SNWwCq+D8nc1i0q02zi7TyL9MQWhYN9fqfZaOfaVERBRJY9x9QtvkdW0OAu4GAkXdJbzpGDRdSfMmr2qIqe+DYRcFdR+5YmWut8uAYd89fdNXYXsDxd0CkjY7DMinbaCkbVMU7CIQEVHEhBKEalAM36JH+fEL2FqEJLVN71ObPJWv1oNSlIMvqB2o77PfSHUe61qtrG/n8z+aWNpN42muCbkBiK/SEDrNvpqbcvAN52ubyGTngYZFbVW+h4LeMezLR0RE0yacPsJGE7XqdyR3CyhX0oYmR7cSSCYDlkGagwAFV+YRpK1bXHUA4UkC9oGr1laxYLNpLRERzaxQaoRqk+Qv1KtHqA999y/8HKg1PqDTQcRDSEGHEwqJiGZOKDVCYVEALm+GTjwXnjwCOvcWzZ8P+HkDCGuP/Ydh6x4KBCy9ME3RkB5jKQkoPx4czpOAtCYAN1ZlAyDOQbAMcCIimnZjXGLNOWzk0zaQXIRkO71imDv8eQnTFI0EVt+ofYJnDeN5+uc0CtvPkUkqOP9ovTqNOpDHJiSh1ojLlQLKnG9IRDR1xjdqNCepYfOHzVJojRvIpZT99AoX5PdHONRGgGb0F83LrzWaqMn3KO5uorylv9jujSo1k1JYXwHkffsl4pQfvwAIwMoCRNxxSTYioikypiDUJ8ufOIwqVSfdlx1Hnz7g4u0RLhzO5GoEZ6uNw2rbRbm1GuXlKQ4tRot2NVo4f5lCJuiAHyIiGrsQmkbn8XQFUK7tJpInsLqXhdhpDp8s32iifikgs7vhsALN+Ig7m8gk26gPq6HmJGSSgHLcYm2QiGjKhLL7BC5Pu5PTB+QkZGC1uos1+f0R6jsF5AM0kYZCSmF9xaHJVHtPcTcNAYBsMxmfiIii7bfl5eW/vP7R3//+dwDcmJeIiKYfN+YlIqJYCzRYRq8ZEhERTSvWCImIKNZ81QjZN0hERLOCNUIiIoo1BiEREcUag5CIiGKNQUhERLHGICQiolhjEBIRUawxCImIKNYYhEREFGsMQiIiijUGIRERxRqDkIiIYo1BSEREscYgJCKiWGMQEhFRrDEIiYgo1hiEREQUawxCIiKKNQYhERHFGoOQiIhijUFIRESxxiAkIqJYYxASEVGsMQiJiCjWGIRERBRrDEIiIoo1BiEREcXaP0y6AOM3j3wlC7H7cxv1ahPyqE6XS6NcSvV+vjxF7f3dqM42QNwpIA/7cwrbGyhuCb0Xxlw+r8SdAtavT3B48DDpohDRjIhhEN6hXj0CoIfAiE/XaKLWaAJIYHVvE5kRn85I2N5AfqWNetUm2HJpFLeA83dHuGiNsWAByB+bWN/dRBEMQyIKB5tGZ1U35Oxru2I2BVx+n5oQBAC02jjcb0PYeo5VadKFIaJZwCCcSfPIl1JQjr85hFwCvy+Ms0whajRRvxSQeZOCMPzdRESOAjeNijsF5Ff0nxScv/tievia++RM75FSKO4u4urdN+DNJjJJ7XWLvqqB/iyr85n75DpNHL5tQwn82QB5/wj1ho8DuTLkOgHatUpbPPxN/Zy5BYhoox606dDVtXRR7qHUZuOlryeo47nhHtv338ofm1B201jPtW3uiV6uEfcBE9HUCxCEWp9X0vigSWB1JwXhvfaw1B7cOD5BTXsoC9sbKO4WkOwLFQGZ3U3I+0eoNaA9gLPI5wzvcdGfpff59d6jlrFYmfP4MNQ+280panr/mpRCcbeAPEYQhm6uk8V71KAefNCL2RTQaVqG/8CXiWQW5Yr+Qy/EXF1L1/fXHWFrE8VL/ZqrQZbfubEevNO6xVUHWHqSAMC+QiLyz3fTqLD9HJmkYuqDesDF+16NQXyVhtBp9tVMlINvOO8AYna+73h9ta3GDWQAwpNE73xPHgH4hZ+2NY15rG8JpubAB1z80YSCFJ7mPHy4nKQGvPEB3Grj7HKw3GFwdZ3EOQhQcPW59x75tA3gEX7v6ytTmzyVr7eWQagcfEGteoRa9QTnHag17+qR9j+9JufuWnq5v670tQLc4c9LAAtzNs2fD/h5Awhrj21+rw6KqrE2SERD+K4RCosC0GmiNaQPavCB/IDWVwWZtTkIuHPdZKkcfIe8lUW+koJ1s+FgUADwVXNQQ1fQzmXS8Vbu4VxeJ/keClJYepHARUurEWo1v/57kEAyiWBcXUuEen+JiCZliqZP6NMetGbL3QIyGGW/XcT6llr3UACIW5sod6d8tFGvmvvsHtDpID6DSG7uGbZEFIjvIFSuFWBFbbayfhAZmq4OjA/rBKQ1Abj57vMB9oCLt0e40AMxOw807rSgEPpqTAAA6TGWkoDyw30/kvLjF/QmR3nkUwvcXSdh+xlEVwN/7I7ngctrOZr765Zek2b/IBEF47uPUDn4Dhkp5PeMQ9i1wTLaT/JpG0imkd829PXpfYsfg65eojYBKtf6g1DtU+qfX5bA6hu1H+vMS62x0cJ5R0BmN20YDWlP3CmgXCmgvOOv/9D1dUra9ZdZHW8Rku95du6upbf7O498Rb1OeS/9tXaGfsHRz7fB+YZE5ChA0+gd6tUTbSRhWntN7bvr1gQaTdTkexR3zc153psczVMZAEA57l9dRH5/hENt1GJ3BRfzNIyBKQi9vsDe8R5w8fYE2Nsc6CccbIp1no9nP0rT0M/p4jopB99wvjZYHssyNW4gl1LIvJrHhc/l0lxdSy/3V3IX4m51B+rYfsFRm4jFpEXNlojI4Lfl5eW/Jl0IGk7cKSC/MNg0ajeFQp2C8sjHnL4p4PazafMgzV+YiIiMuLLMVLCrdWqvdywGjOirr+zOWNOglEJx6Ko5AJDA6ssUgDbOGIJE5IA1wqlhXsFFM2S3iGG7T0wbN7tPdJvRA6wqRETxwSAkIqJYY9MoERHFGoOQiIhijUFIRESxxiAkIqJYYxASEVGsMQiJiCjWGIRERBRrIQRhAqt7HlYvkVIociFkIiKKiAA71G8M7raQS6PctxvFIPFVGsLl99lb/5KIiKZSgG2YvuF8IYtyRULy5heSrwool1KQPzktaTWPpyuAfDoby30REdH0C2GJNXUNTMHFCv/C9gaKa9dc/5GIiCIjQB9hAqt7BZQrC8BlG8ri5pBNUNWdy5WvtwxBIiKKjAB9hM+RuTlFrdpCZ+EROh+PUNv/hcwbmz7CnIRMUsHVZ26JQ0RE0eF7h3rl4AtqAIBE78VGEzWbHcPFbAq4POUgGSIiihTfQdjzgIu3X5zfIqWwvgLI+xwkQ0RE0TKWCfXCi0UInSbObGqLREREkzKGIOQgGSIiiq7RB2FOQibZxtmQqRVERESTMPIgVAfJ3EAe9YmIiIh8GG0Q6oNkuJIMERFF1EiDkINkiIgo6kJYYo2IiGh6cT9CIiKKNQYhERHFGoOQiIhijUFIRESxxiAkIqJYYxASEVGsMQiJiCjWGIRERBRrDEIiIoo1BiEREcUag5CIiGLt/wMjH6JMs2DAJwAAAABJRU5ErkJggg==;movable=0;resizable=0;rotatable=0;deletable=0;editable=0;connectable=0;" vertex="1" parent="1">
                    <mxGeometry x="10" y="10" width="348" height="290" as="geometry"/>
                </mxCell>
            </root>
        </mxGraphModel>
    </diagram>
</mxfile>